<svg width="20" height="20" viewBox="0 0 20 20" fill="currentcolor" xmlns="http://www.w3.org/2000/svg"><path fill-rule="evenodd" clip-rule="evenodd" d="M10 20C15.5228 20 20 15.5228 20 10C20 4.47715 15.5228 0 10 0C4.47715 0 0 4.47715 0 10C0 15.5228 4.47715 20 10 20ZM14.0404 5.95958C14.4309 6.3501 14.4309 6.98327 14.0404 7.37379L11.4142 10L14.0404 12.6262C14.4309 13.0168 14.4309 13.6499 14.0404 14.0405C13.6499 14.431 13.0167 14.431 12.6262 14.0405L9.99996 11.4142L7.37373 14.0405C6.98321 14.431 6.35004 14.431 5.95952 14.0405C5.56899 13.6499 5.56899 13.0168 5.95952 12.6262L8.58575 10L5.95952 7.37379C5.56899 6.98327 5.56899 6.3501 5.95952 5.95958C6.35004 5.56906 6.98321 5.56906 7.37373 5.95958L9.99996 8.58581L12.6262 5.95958C13.0167 5.56906 13.6499 5.56906 14.0404 5.95958Z"></path></svg>