<svg xmlns="http://www.w3.org/2000/svg" viewBox="0 0 24 24" id="Bold"><path d="M15.4892 4.92582C15.3242 4.76915 15.065 4.76915 14.9 4.92582L5.38921 14.4367C5.22671 14.5992 5.22671 14.8633 5.38921 15.0258L8.95587 18.5925C9.11837 18.755 9.38254 18.755 9.54504 18.5925L19.0559 9.08332C19.2184 8.92082 19.2184 8.65665 19.0559 8.49415L15.4892 4.92582ZM4.50004 15.925C4.33671 15.7625 4.07337 15.7633 3.91087 15.9267C3.86504 15.9733 3.83004 16.0292 3.81004 16.0917L2.02671 21.4417C1.97671 21.5917 2.01504 21.7566 2.12671 21.8683C2.23921 21.9783 2.40337 22.0175 2.55337 21.9692L7.90337 20.1867C8.12254 20.1158 8.24254 19.8808 8.17171 19.6617C8.15171 19.5992 8.11671 19.5417 8.07004 19.4958L4.50004 15.925ZM21.14 2.84748C19.9767 1.73748 18.1467 1.73748 16.9834 2.84748L16.39 3.44165C16.2275 3.60415 16.2275 3.86832 16.39 4.03082L19.9559 7.59748C20.1184 7.75998 20.3825 7.75998 20.545 7.59748L21.14 6.99998C22.2834 5.85248 22.2834 3.99498 21.14 2.84748Z"></path></svg>