<svg xmlns="http://www.w3.org/2000/svg" viewBox="0 0 24 24" id="Bold"><path d="M12.494,22.338a.5.5,0,0,1-.738,0L7.783,18a.246.246,0,0,0-.233-.076,14.359,14.359,0,0,0-5.959,2.49,2.464,2.464,0,0,0-.966,1.976V23.5a.5.5,0,0,0,.5.5h22a.5.5,0,0,0,.5-.5V22.394a2.465,2.465,0,0,0-.967-1.977A14.363,14.363,0,0,0,16.7,17.928a.248.248,0,0,0-.233.076Z"></path><path d="M1.125,8.5a.381.381,0,0,0,.016.1.25.25,0,0,1-.015.168A8.893,8.893,0,0,0,.375,12.5a.75.75,0,0,0,.75.75h2a.75.75,0,0,0,.75-.75,8.893,8.893,0,0,0-.751-3.73A.256.256,0,0,1,3.109,8.6a.381.381,0,0,0,.016-.1V5.68a.25.25,0,0,0-.195-.244L1.43,5.1a.25.25,0,0,0-.211.048.253.253,0,0,0-.094.2Z"></path><path d="M12.347,7.475a1,1,0,0,1-.444,0L5.43,6a.25.25,0,0,0-.211.048.253.253,0,0,0-.094.2c0,5.461.45,8.439-2.153,9.275a.5.5,0,0,0-.327.337.5.5,0,0,0,.1.46,3.8,3.8,0,0,0,2.921,1.119,5.351,5.351,0,0,0,1.317-.161c.039-.01.068-.026.1-.037a3.474,3.474,0,0,0,.924-.4.249.249,0,0,1,.272,0,6.974,6.974,0,0,0,7.645.032.248.248,0,0,1,.273,0,3.474,3.474,0,0,0,.927.41c.051.015.092.038.146.052a5.351,5.351,0,0,0,1.317.161,3.8,3.8,0,0,0,2.921-1.119.5.5,0,0,0,.1-.46.5.5,0,0,0-.327-.337c-2.611-.839-2.153-3.806-2.153-9.335a.253.253,0,0,0-.094-.2A.25.25,0,0,0,18.82,6ZM12.125,9.5a19.2,19.2,0,0,0,4.688-.487.249.249,0,0,1,.312.242V11a5,5,0,0,1-10,0V9.255a.249.249,0,0,1,.312-.242A19.2,19.2,0,0,0,12.125,9.5Z"></path><circle cx="14.125" cy="11.25" r="1"></circle><circle cx="10.125" cy="11.25" r="1"></circle><path d="M10.582,13.844a.639.639,0,0,0,.317.72,2.376,2.376,0,0,0,.435.179,2.99,2.99,0,0,0,.867.126h.006a2.976,2.976,0,0,0,.863-.125,2.3,2.3,0,0,0,.436-.181.639.639,0,0,0-.3-1.2h-2A.639.639,0,0,0,10.582,13.844Z"></path><path d="M.647,3.131a.5.5,0,0,0,.367.357l11,2.5a.519.519,0,0,0,.222,0l11-2.5a.5.5,0,0,0,.367-.357A.513.513,0,0,0,23.625,3a.5.5,0,0,0-.389-.488l-11-2.5a.519.519,0,0,0-.222,0l-11,2.5A.5.5,0,0,0,.625,3,.513.513,0,0,0,.647,3.131Z"></path></svg>