<svg width="48" height="48" viewBox="0 0 48 48" fill="none" xmlns="http://www.w3.org/2000/svg"><path d="M24 0C10.752 0 0 10.752 0 24C0 37.248 10.752 48 24 48C37.248 48 48 37.248 48 24C48 10.752 37.248 0 24 0ZM12.168 39.072C13.2 36.912 19.488 34.8 24 34.8C28.512 34.8 34.824 36.912 35.832 39.072C32.568 41.664 28.464 43.2 24 43.2C19.536 43.2 15.432 41.664 12.168 39.072ZM39.264 35.592C35.832 31.416 27.504 30 24 30C20.496 30 12.168 31.416 8.736 35.592C6.288 32.376 4.8 28.368 4.8 24C4.8 13.416 13.416 4.8 24 4.8C34.584 4.8 43.2 13.416 43.2 24C43.2 28.368 41.712 32.376 39.264 35.592ZM24 9.6C19.344 9.6 15.6 13.344 15.6 18C15.6 22.656 19.344 26.4 24 26.4C28.656 26.4 32.4 22.656 32.4 18C32.4 13.344 28.656 9.6 24 9.6ZM24 21.6C22.008 21.6 20.4 19.992 20.4 18C20.4 16.008 22.008 14.4 24 14.4C25.992 14.4 27.6 16.008 27.6 18C27.6 19.992 25.992 21.6 24 21.6Z" fill="currentColor"></path></svg>